%TF.GenerationSoftware,KiCad,Pcbnew,8.0.7*%
%TF.CreationDate,2025-02-15T17:39:47+06:00*%
%TF.ProjectId,arduino_plc,61726475-696e-46f5-9f70-6c632e6b6963,rev?*%
%TF.SameCoordinates,Original*%
%TF.FileFunction,Copper,L1,Top*%
%TF.FilePolarity,Positive*%
%FSLAX46Y46*%
G04 Gerber Fmt 4.6, Leading zero omitted, Abs format (unit mm)*
G04 Created by KiCad (PCBNEW 8.0.7) date 2025-02-15 17:39:47*
%MOMM*%
%LPD*%
G01*
G04 APERTURE LIST*
%TA.AperFunction,ComponentPad*%
%ADD10R,1.600000X1.600000*%
%TD*%
%TA.AperFunction,ComponentPad*%
%ADD11O,1.600000X1.600000*%
%TD*%
%TA.AperFunction,ComponentPad*%
%ADD12R,1.508000X1.508000*%
%TD*%
%TA.AperFunction,ComponentPad*%
%ADD13C,1.508000*%
%TD*%
%TA.AperFunction,ComponentPad*%
%ADD14R,1.700000X2.000000*%
%TD*%
%TA.AperFunction,ComponentPad*%
%ADD15O,1.700000X2.000000*%
%TD*%
%TA.AperFunction,ComponentPad*%
%ADD16R,2.600000X2.600000*%
%TD*%
%TA.AperFunction,ComponentPad*%
%ADD17C,2.600000*%
%TD*%
%TA.AperFunction,ComponentPad*%
%ADD18R,2.200000X2.200000*%
%TD*%
%TA.AperFunction,ComponentPad*%
%ADD19O,2.200000X2.200000*%
%TD*%
%TA.AperFunction,ViaPad*%
%ADD20C,1.600000*%
%TD*%
%TA.AperFunction,Conductor*%
%ADD21C,0.760000*%
%TD*%
G04 APERTURE END LIST*
D10*
%TO.P,A1,1,D1/TX*%
%TO.N,unconnected-(A1-D1{slash}TX-Pad1)*%
X144152500Y-63842500D03*
D11*
%TO.P,A1,2,D0/RX*%
%TO.N,unconnected-(A1-D0{slash}RX-Pad2)*%
X146692500Y-63842500D03*
%TO.P,A1,3,~{RESET}*%
%TO.N,unconnected-(A1-~{RESET}-Pad3)*%
X149232500Y-63842500D03*
%TO.P,A1,4,GND*%
%TO.N,N/C*%
X151772500Y-63842500D03*
%TO.P,A1,5,D2*%
%TO.N,2*%
X154312500Y-63842500D03*
%TO.P,A1,6,D3*%
%TO.N,3*%
X156852500Y-63842500D03*
%TO.P,A1,7,D4*%
%TO.N,4*%
X159392500Y-63842500D03*
%TO.P,A1,8,D5*%
%TO.N,5*%
X161932500Y-63842500D03*
%TO.P,A1,9,D6*%
%TO.N,6*%
X164472500Y-63842500D03*
%TO.P,A1,10,D7*%
%TO.N,7*%
X167012500Y-63842500D03*
%TO.P,A1,11,D8*%
%TO.N,8*%
X169552500Y-63842500D03*
%TO.P,A1,12,D9*%
%TO.N,9*%
X172092500Y-63842500D03*
%TO.P,A1,13,D10*%
%TO.N,10*%
X174632500Y-63842500D03*
%TO.P,A1,14,D11*%
%TO.N,11*%
X177172500Y-63842500D03*
%TO.P,A1,15,D12*%
%TO.N,unconnected-(A1-D12-Pad15)*%
X179712500Y-63842500D03*
%TO.P,A1,16,D13*%
%TO.N,unconnected-(A1-D13-Pad16)*%
X179712500Y-48602500D03*
%TO.P,A1,17,3V3*%
%TO.N,unconnected-(A1-3V3-Pad17)*%
X177172500Y-48602500D03*
%TO.P,A1,18,AREF*%
%TO.N,unconnected-(A1-AREF-Pad18)*%
X174632500Y-48602500D03*
%TO.P,A1,19,A0*%
%TO.N,unconnected-(A1-A0-Pad19)*%
X172092500Y-48602500D03*
%TO.P,A1,20,A1*%
%TO.N,unconnected-(A1-A1-Pad20)*%
X169552500Y-48602500D03*
%TO.P,A1,21,A2*%
%TO.N,unconnected-(A1-A2-Pad21)*%
X167012500Y-48602500D03*
%TO.P,A1,22,A3*%
%TO.N,unconnected-(A1-A3-Pad22)*%
X164472500Y-48602500D03*
%TO.P,A1,23,A4*%
%TO.N,unconnected-(A1-A4-Pad23)*%
X161932500Y-48602500D03*
%TO.P,A1,24,A5*%
%TO.N,unconnected-(A1-A5-Pad24)*%
X159392500Y-48602500D03*
%TO.P,A1,25,A6*%
%TO.N,unconnected-(A1-A6-Pad25)*%
X156852500Y-48602500D03*
%TO.P,A1,26,A7*%
%TO.N,unconnected-(A1-A7-Pad26)*%
X154312500Y-48602500D03*
%TO.P,A1,27,+5V*%
%TO.N,unconnected-(A1-+5V-Pad27)*%
X151772500Y-48602500D03*
%TO.P,A1,28,~{RESET}*%
%TO.N,unconnected-(A1-~{RESET}-Pad28)*%
X149232500Y-48602500D03*
%TO.P,A1,29,GND*%
%TO.N,GND*%
X146692500Y-48602500D03*
%TO.P,A1,30,VIN*%
%TO.N,VCC*%
X144152500Y-48602500D03*
%TD*%
D12*
%TO.P,K5,1*%
%TO.N,Net-(J5-Pin_2)*%
X151699164Y-98940000D03*
D13*
%TO.P,K5,2*%
%TO.N,AC*%
X151699164Y-91320000D03*
%TO.P,K5,3*%
%TO.N,6*%
X151699164Y-81160000D03*
%TO.P,K5,4*%
%TO.N,GND*%
X151699164Y-78620000D03*
%TD*%
D12*
%TO.P,K6,1*%
%TO.N,Net-(J6-Pin_2)*%
X169685830Y-98940000D03*
D13*
%TO.P,K6,2*%
%TO.N,AC*%
X169685830Y-91320000D03*
%TO.P,K6,3*%
%TO.N,7*%
X169685830Y-81160000D03*
%TO.P,K6,4*%
%TO.N,GND*%
X169685830Y-78620000D03*
%TD*%
D14*
%TO.P,PS1,1,AC/L*%
%TO.N,AC*%
X81345000Y-51372500D03*
D15*
%TO.P,PS1,2,AC/N*%
%TO.N,NEUT*%
X81345000Y-56372500D03*
%TO.P,PS1,3,-Vout*%
%TO.N,GND*%
X110425000Y-46372500D03*
%TO.P,PS1,4,+Vout*%
%TO.N,Net-(D1-A)*%
X110425000Y-61372500D03*
%TD*%
D11*
%TO.P,U9,1*%
%TO.N,NEUT*%
X217636662Y-93950000D03*
%TO.P,U9,2*%
%TO.N,Net-(R9-Pad2)*%
X217636662Y-88870000D03*
%TD*%
D12*
%TO.P,K8,1*%
%TO.N,Net-(J8-Pin_2)*%
X205659162Y-98940000D03*
D13*
%TO.P,K8,2*%
%TO.N,AC*%
X205659162Y-91320000D03*
%TO.P,K8,3*%
%TO.N,9*%
X205659162Y-81160000D03*
%TO.P,K8,4*%
%TO.N,GND*%
X205659162Y-78620000D03*
%TD*%
D12*
%TO.P,K10,1*%
%TO.N,Net-(J10-Pin_2)*%
X241632500Y-98940000D03*
D13*
%TO.P,K10,2*%
%TO.N,AC*%
X241632500Y-91320000D03*
%TO.P,K10,3*%
%TO.N,11*%
X241632500Y-81160000D03*
%TO.P,K10,4*%
%TO.N,GND*%
X241632500Y-78620000D03*
%TD*%
D11*
%TO.P,R7,1*%
%TO.N,Net-(J6-Pin_2)*%
X176953329Y-98920000D03*
%TO.P,R7,2*%
%TO.N,Net-(R7-Pad2)*%
X176953329Y-88760000D03*
%TD*%
%TO.P,U4,1*%
%TO.N,NEUT*%
X127703332Y-93950000D03*
%TO.P,U4,2*%
%TO.N,Net-(R4-Pad2)*%
X127703332Y-88870000D03*
%TD*%
D12*
%TO.P,K9,1*%
%TO.N,Net-(J9-Pin_2)*%
X223645828Y-98940000D03*
D13*
%TO.P,K9,2*%
%TO.N,AC*%
X223645828Y-91320000D03*
%TO.P,K9,3*%
%TO.N,10*%
X223645828Y-81160000D03*
%TO.P,K9,4*%
%TO.N,GND*%
X223645828Y-78620000D03*
%TD*%
D11*
%TO.P,U11,1*%
%TO.N,NEUT*%
X253610000Y-93950000D03*
%TO.P,U11,2*%
%TO.N,Net-(R11-Pad2)*%
X253610000Y-88870000D03*
%TD*%
D16*
%TO.P,REF\u002A\u002A,1*%
%TO.N,NEUT*%
X133432500Y-114710000D03*
D17*
%TO.P,REF\u002A\u002A,2*%
X138512500Y-114710000D03*
%TD*%
D11*
%TO.P,R2,1*%
%TO.N,Net-(J1-Pin_2)*%
X87020000Y-98920000D03*
%TO.P,R2,2*%
%TO.N,Net-(R2-Pad2)*%
X87020000Y-88760000D03*
%TD*%
%TO.P,U3,1*%
%TO.N,NEUT*%
X109716666Y-93950000D03*
%TO.P,U3,2*%
%TO.N,Net-(R3-Pad2)*%
X109716666Y-88870000D03*
%TD*%
%TO.P,U1,1*%
%TO.N,GND*%
X117852500Y-51190000D03*
%TO.P,U1,2*%
%TO.N,Net-(R1-Pad2)*%
X122932500Y-51190000D03*
%TD*%
D12*
%TO.P,K2,1*%
%TO.N,Net-(J2-Pin_2)*%
X97739166Y-98940000D03*
D13*
%TO.P,K2,2*%
%TO.N,AC*%
X97739166Y-91320000D03*
%TO.P,K2,3*%
%TO.N,3*%
X97739166Y-81160000D03*
%TO.P,K2,4*%
%TO.N,GND*%
X97739166Y-78620000D03*
%TD*%
D12*
%TO.P,K3,1*%
%TO.N,Net-(J3-Pin_2)*%
X115725832Y-98940000D03*
D13*
%TO.P,K3,2*%
%TO.N,AC*%
X115725832Y-91320000D03*
%TO.P,K3,3*%
%TO.N,4*%
X115725832Y-81160000D03*
%TO.P,K3,4*%
%TO.N,GND*%
X115725832Y-78620000D03*
%TD*%
D11*
%TO.P,R9,1*%
%TO.N,Net-(J8-Pin_2)*%
X212926661Y-98920000D03*
%TO.P,R9,2*%
%TO.N,Net-(R9-Pad2)*%
X212926661Y-88760000D03*
%TD*%
%TO.P,U2,1*%
%TO.N,NEUT*%
X91730000Y-93950000D03*
%TO.P,U2,2*%
%TO.N,Net-(R2-Pad2)*%
X91730000Y-88870000D03*
%TD*%
%TO.P,R4,1*%
%TO.N,Net-(J3-Pin_2)*%
X122993331Y-98920000D03*
%TO.P,R4,2*%
%TO.N,Net-(R4-Pad2)*%
X122993331Y-88760000D03*
%TD*%
D16*
%TO.P,REF\u002A\u002A,1*%
%TO.N,Net-(J1-Pin_2)*%
X80072500Y-114710000D03*
D17*
%TO.P,REF\u002A\u002A,2*%
%TO.N,Net-(J2-Pin_2)*%
X85152500Y-114710000D03*
%TO.P,REF\u002A\u002A,3*%
%TO.N,Net-(J3-Pin_2)*%
X90232500Y-114710000D03*
%TO.P,REF\u002A\u002A,4*%
%TO.N,Net-(J4-Pin_2)*%
X95312500Y-114710000D03*
%TO.P,REF\u002A\u002A,5*%
%TO.N,Net-(J5-Pin_2)*%
X100392500Y-114710000D03*
%TO.P,REF\u002A\u002A,6*%
%TO.N,Net-(J6-Pin_2)*%
X105472500Y-114710000D03*
%TO.P,REF\u002A\u002A,7*%
%TO.N,Net-(J7-Pin_2)*%
X110552500Y-114710000D03*
%TO.P,REF\u002A\u002A,8*%
%TO.N,Net-(J8-Pin_2)*%
X115632500Y-114710000D03*
%TO.P,REF\u002A\u002A,9*%
%TO.N,Net-(J9-Pin_2)*%
X120712500Y-114710000D03*
%TO.P,REF\u002A\u002A,10*%
%TO.N,Net-(J10-Pin_2)*%
X125792500Y-114710000D03*
%TD*%
D11*
%TO.P,R1,1*%
%TO.N,Net-(D1-A)*%
X127832500Y-61425000D03*
%TO.P,R1,2*%
%TO.N,Net-(R1-Pad2)*%
X127832500Y-51265000D03*
%TD*%
D12*
%TO.P,K4,1*%
%TO.N,Net-(J4-Pin_2)*%
X133712498Y-98940000D03*
D13*
%TO.P,K4,2*%
%TO.N,AC*%
X133712498Y-91320000D03*
%TO.P,K4,3*%
%TO.N,5*%
X133712498Y-81160000D03*
%TO.P,K4,4*%
%TO.N,GND*%
X133712498Y-78620000D03*
%TD*%
D11*
%TO.P,R8,1*%
%TO.N,Net-(J7-Pin_2)*%
X194939995Y-98920000D03*
%TO.P,R8,2*%
%TO.N,Net-(R8-Pad2)*%
X194939995Y-88760000D03*
%TD*%
D12*
%TO.P,K1,1*%
%TO.N,Net-(J1-Pin_2)*%
X79752500Y-98940000D03*
D13*
%TO.P,K1,2*%
%TO.N,AC*%
X79752500Y-91320000D03*
%TO.P,K1,3*%
%TO.N,2*%
X79752500Y-81160000D03*
%TO.P,K1,4*%
%TO.N,GND*%
X79752500Y-78620000D03*
%TD*%
D11*
%TO.P,U7,1*%
%TO.N,NEUT*%
X181663330Y-93950000D03*
%TO.P,U7,2*%
%TO.N,Net-(R7-Pad2)*%
X181663330Y-88870000D03*
%TD*%
%TO.P,R5,1*%
%TO.N,Net-(J4-Pin_2)*%
X140979997Y-98920000D03*
%TO.P,R5,2*%
%TO.N,Net-(R5-Pad2)*%
X140979997Y-88760000D03*
%TD*%
D12*
%TO.P,K7,1*%
%TO.N,Net-(J7-Pin_2)*%
X187672496Y-98940000D03*
D13*
%TO.P,K7,2*%
%TO.N,AC*%
X187672496Y-91320000D03*
%TO.P,K7,3*%
%TO.N,8*%
X187672496Y-81160000D03*
%TO.P,K7,4*%
%TO.N,GND*%
X187672496Y-78620000D03*
%TD*%
D11*
%TO.P,U8,1*%
%TO.N,NEUT*%
X199649996Y-93950000D03*
%TO.P,U8,2*%
%TO.N,Net-(R8-Pad2)*%
X199649996Y-88870000D03*
%TD*%
D16*
%TO.P,REF\u002A\u002A,1*%
%TO.N,AC*%
X68032500Y-114710000D03*
D17*
%TO.P,REF\u002A\u002A,2*%
%TO.N,NEUT*%
X73112500Y-114710000D03*
%TD*%
D11*
%TO.P,U6,1*%
%TO.N,NEUT*%
X163676664Y-93950000D03*
%TO.P,U6,2*%
%TO.N,Net-(R6-Pad2)*%
X163676664Y-88870000D03*
%TD*%
D18*
%TO.P,D1,1,K*%
%TO.N,VCC*%
X134272500Y-51310000D03*
D19*
%TO.P,D1,2,A*%
%TO.N,Net-(D1-A)*%
X134272500Y-61470000D03*
%TD*%
D11*
%TO.P,R11,1*%
%TO.N,Net-(J10-Pin_2)*%
X248899999Y-98920000D03*
%TO.P,R11,2*%
%TO.N,Net-(R11-Pad2)*%
X248899999Y-88760000D03*
%TD*%
%TO.P,U5,1*%
%TO.N,NEUT*%
X145689998Y-93950000D03*
%TO.P,U5,2*%
%TO.N,Net-(R5-Pad2)*%
X145689998Y-88870000D03*
%TD*%
%TO.P,R6,1*%
%TO.N,Net-(J5-Pin_2)*%
X158966663Y-98920000D03*
%TO.P,R6,2*%
%TO.N,Net-(R6-Pad2)*%
X158966663Y-88760000D03*
%TD*%
%TO.P,R3,1*%
%TO.N,Net-(J2-Pin_2)*%
X105006665Y-98920000D03*
%TO.P,R3,2*%
%TO.N,Net-(R3-Pad2)*%
X105006665Y-88760000D03*
%TD*%
%TO.P,R10,1*%
%TO.N,Net-(J9-Pin_2)*%
X230913327Y-98920000D03*
%TO.P,R10,2*%
%TO.N,Net-(R10-Pad2)*%
X230913327Y-88760000D03*
%TD*%
%TO.P,U10,1*%
%TO.N,NEUT*%
X235623328Y-93950000D03*
%TO.P,U10,2*%
%TO.N,Net-(R10-Pad2)*%
X235623328Y-88870000D03*
%TD*%
D20*
%TO.N,GND*%
X223622500Y-73360000D03*
X151762500Y-73370000D03*
X97842500Y-73370000D03*
X169712500Y-73370000D03*
X205652500Y-73360000D03*
X241622500Y-73370000D03*
X187692500Y-73370000D03*
X79735000Y-73370000D03*
X115722500Y-73370000D03*
X133742500Y-73370000D03*
%TO.N,NEUT*%
X73102500Y-85870000D03*
X145762500Y-114750000D03*
X145662500Y-96430000D03*
X73102500Y-96060000D03*
%TD*%
D21*
%TO.N,GND*%
X241622500Y-73370000D02*
X241632500Y-73380000D01*
X79735000Y-73370000D02*
X241622500Y-73370000D01*
%TO.N,NEUT*%
X73102500Y-96060000D02*
X73152500Y-96010000D01*
X145662500Y-96430000D02*
X145662500Y-114650000D01*
X145662500Y-114650000D02*
X145762500Y-114750000D01*
X73152500Y-96010000D02*
X73152500Y-86000000D01*
X73152500Y-86000000D02*
X73022500Y-85870000D01*
%TD*%
M02*
