%TF.GenerationSoftware,KiCad,Pcbnew,8.0.7*%
%TF.CreationDate,2025-02-15T17:39:48+06:00*%
%TF.ProjectId,arduino_plc,61726475-696e-46f5-9f70-6c632e6b6963,rev?*%
%TF.SameCoordinates,Original*%
%TF.FileFunction,Soldermask,Bot*%
%TF.FilePolarity,Negative*%
%FSLAX46Y46*%
G04 Gerber Fmt 4.6, Leading zero omitted, Abs format (unit mm)*
G04 Created by KiCad (PCBNEW 8.0.7) date 2025-02-15 17:39:48*
%MOMM*%
%LPD*%
G01*
G04 APERTURE LIST*
G04 Aperture macros list*
%AMRoundRect*
0 Rectangle with rounded corners*
0 $1 Rounding radius*
0 $2 $3 $4 $5 $6 $7 $8 $9 X,Y pos of 4 corners*
0 Add a 4 corners polygon primitive as box body*
4,1,4,$2,$3,$4,$5,$6,$7,$8,$9,$2,$3,0*
0 Add four circle primitives for the rounded corners*
1,1,$1+$1,$2,$3*
1,1,$1+$1,$4,$5*
1,1,$1+$1,$6,$7*
1,1,$1+$1,$8,$9*
0 Add four rect primitives between the rounded corners*
20,1,$1+$1,$2,$3,$4,$5,0*
20,1,$1+$1,$4,$5,$6,$7,0*
20,1,$1+$1,$6,$7,$8,$9,0*
20,1,$1+$1,$8,$9,$2,$3,0*%
G04 Aperture macros list end*
%ADD10R,1.600000X1.600000*%
%ADD11O,1.600000X1.600000*%
%ADD12RoundRect,0.102000X-0.754000X0.754000X-0.754000X-0.754000X0.754000X-0.754000X0.754000X0.754000X0*%
%ADD13C,1.712000*%
%ADD14R,1.700000X2.000000*%
%ADD15O,1.700000X2.000000*%
%ADD16R,2.600000X2.600000*%
%ADD17C,2.600000*%
%ADD18R,2.200000X2.200000*%
%ADD19O,2.200000X2.200000*%
G04 APERTURE END LIST*
D10*
%TO.C,A1*%
X144152500Y-63842500D03*
D11*
X146692500Y-63842500D03*
X149232500Y-63842500D03*
X151772500Y-63842500D03*
X154312500Y-63842500D03*
X156852500Y-63842500D03*
X159392500Y-63842500D03*
X161932500Y-63842500D03*
X164472500Y-63842500D03*
X167012500Y-63842500D03*
X169552500Y-63842500D03*
X172092500Y-63842500D03*
X174632500Y-63842500D03*
X177172500Y-63842500D03*
X179712500Y-63842500D03*
X179712500Y-48602500D03*
X177172500Y-48602500D03*
X174632500Y-48602500D03*
X172092500Y-48602500D03*
X169552500Y-48602500D03*
X167012500Y-48602500D03*
X164472500Y-48602500D03*
X161932500Y-48602500D03*
X159392500Y-48602500D03*
X156852500Y-48602500D03*
X154312500Y-48602500D03*
X151772500Y-48602500D03*
X149232500Y-48602500D03*
X146692500Y-48602500D03*
X144152500Y-48602500D03*
%TD*%
D12*
%TO.C,K5*%
X151699164Y-98940000D03*
D13*
X151699164Y-91320000D03*
X151699164Y-81160000D03*
X151699164Y-78620000D03*
%TD*%
D12*
%TO.C,K6*%
X169685830Y-98940000D03*
D13*
X169685830Y-91320000D03*
X169685830Y-81160000D03*
X169685830Y-78620000D03*
%TD*%
D14*
%TO.C,PS1*%
X81345000Y-51372500D03*
D15*
X81345000Y-56372500D03*
X110425000Y-46372500D03*
X110425000Y-61372500D03*
%TD*%
D11*
%TO.C,U9*%
X217636662Y-93950000D03*
X217636662Y-88870000D03*
%TD*%
D12*
%TO.C,K8*%
X205659162Y-98940000D03*
D13*
X205659162Y-91320000D03*
X205659162Y-81160000D03*
X205659162Y-78620000D03*
%TD*%
D12*
%TO.C,K10*%
X241632500Y-98940000D03*
D13*
X241632500Y-91320000D03*
X241632500Y-81160000D03*
X241632500Y-78620000D03*
%TD*%
D11*
%TO.C,R7*%
X176953329Y-98920000D03*
X176953329Y-88760000D03*
%TD*%
%TO.C,U4*%
X127703332Y-93950000D03*
X127703332Y-88870000D03*
%TD*%
D12*
%TO.C,K9*%
X223645828Y-98940000D03*
D13*
X223645828Y-91320000D03*
X223645828Y-81160000D03*
X223645828Y-78620000D03*
%TD*%
D11*
%TO.C,U11*%
X253610000Y-93950000D03*
X253610000Y-88870000D03*
%TD*%
D16*
%TO.C,REF\u002A\u002A*%
X133432500Y-114710000D03*
D17*
X138512500Y-114710000D03*
%TD*%
D11*
%TO.C,R2*%
X87020000Y-98920000D03*
X87020000Y-88760000D03*
%TD*%
%TO.C,U3*%
X109716666Y-93950000D03*
X109716666Y-88870000D03*
%TD*%
%TO.C,U1*%
X117852500Y-51190000D03*
X122932500Y-51190000D03*
%TD*%
D12*
%TO.C,K2*%
X97739166Y-98940000D03*
D13*
X97739166Y-91320000D03*
X97739166Y-81160000D03*
X97739166Y-78620000D03*
%TD*%
D12*
%TO.C,K3*%
X115725832Y-98940000D03*
D13*
X115725832Y-91320000D03*
X115725832Y-81160000D03*
X115725832Y-78620000D03*
%TD*%
D11*
%TO.C,R9*%
X212926661Y-98920000D03*
X212926661Y-88760000D03*
%TD*%
%TO.C,U2*%
X91730000Y-93950000D03*
X91730000Y-88870000D03*
%TD*%
%TO.C,R4*%
X122993331Y-98920000D03*
X122993331Y-88760000D03*
%TD*%
D16*
%TO.C,REF\u002A\u002A*%
X80072500Y-114710000D03*
D17*
X85152500Y-114710000D03*
X90232500Y-114710000D03*
X95312500Y-114710000D03*
X100392500Y-114710000D03*
X105472500Y-114710000D03*
X110552500Y-114710000D03*
X115632500Y-114710000D03*
X120712500Y-114710000D03*
X125792500Y-114710000D03*
%TD*%
D11*
%TO.C,R1*%
X127832500Y-61425000D03*
X127832500Y-51265000D03*
%TD*%
D12*
%TO.C,K4*%
X133712498Y-98940000D03*
D13*
X133712498Y-91320000D03*
X133712498Y-81160000D03*
X133712498Y-78620000D03*
%TD*%
D11*
%TO.C,R8*%
X194939995Y-98920000D03*
X194939995Y-88760000D03*
%TD*%
D12*
%TO.C,K1*%
X79752500Y-98940000D03*
D13*
X79752500Y-91320000D03*
X79752500Y-81160000D03*
X79752500Y-78620000D03*
%TD*%
D11*
%TO.C,U7*%
X181663330Y-93950000D03*
X181663330Y-88870000D03*
%TD*%
%TO.C,R5*%
X140979997Y-98920000D03*
X140979997Y-88760000D03*
%TD*%
D12*
%TO.C,K7*%
X187672496Y-98940000D03*
D13*
X187672496Y-91320000D03*
X187672496Y-81160000D03*
X187672496Y-78620000D03*
%TD*%
D11*
%TO.C,U8*%
X199649996Y-93950000D03*
X199649996Y-88870000D03*
%TD*%
D16*
%TO.C,REF\u002A\u002A*%
X68032500Y-114710000D03*
D17*
X73112500Y-114710000D03*
%TD*%
D11*
%TO.C,U6*%
X163676664Y-93950000D03*
X163676664Y-88870000D03*
%TD*%
D18*
%TO.C,D1*%
X134272500Y-51310000D03*
D19*
X134272500Y-61470000D03*
%TD*%
D11*
%TO.C,R11*%
X248899999Y-98920000D03*
X248899999Y-88760000D03*
%TD*%
%TO.C,U5*%
X145689998Y-93950000D03*
X145689998Y-88870000D03*
%TD*%
%TO.C,R6*%
X158966663Y-98920000D03*
X158966663Y-88760000D03*
%TD*%
%TO.C,R3*%
X105006665Y-98920000D03*
X105006665Y-88760000D03*
%TD*%
%TO.C,R10*%
X230913327Y-98920000D03*
X230913327Y-88760000D03*
%TD*%
%TO.C,U10*%
X235623328Y-93950000D03*
X235623328Y-88870000D03*
%TD*%
G36*
X73285434Y-84888017D02*
G01*
X73309275Y-84892759D01*
X73473498Y-84942575D01*
X73495956Y-84951878D01*
X73647298Y-85032772D01*
X73667510Y-85046277D01*
X73800166Y-85155145D01*
X73817354Y-85172333D01*
X73926222Y-85304989D01*
X73939727Y-85325201D01*
X74020621Y-85476543D01*
X74029924Y-85499001D01*
X74079740Y-85663224D01*
X74084482Y-85687065D01*
X74101302Y-85857846D01*
X74101302Y-85882154D01*
X74084482Y-86052934D01*
X74079740Y-86076775D01*
X74029924Y-86240998D01*
X74020621Y-86263456D01*
X73939727Y-86414798D01*
X73926222Y-86435010D01*
X73817354Y-86567666D01*
X73800166Y-86584854D01*
X73667510Y-86693722D01*
X73647298Y-86707227D01*
X73495956Y-86788121D01*
X73473498Y-86797424D01*
X73309275Y-86847240D01*
X73285434Y-86851982D01*
X73114654Y-86868802D01*
X73090346Y-86868802D01*
X72919565Y-86851982D01*
X72895724Y-86847240D01*
X72731501Y-86797424D01*
X72709043Y-86788121D01*
X72557701Y-86707227D01*
X72537489Y-86693722D01*
X72404833Y-86584854D01*
X72387645Y-86567666D01*
X72278777Y-86435010D01*
X72265272Y-86414798D01*
X72184378Y-86263456D01*
X72175075Y-86240998D01*
X72125259Y-86076775D01*
X72120517Y-86052934D01*
X72103697Y-85882154D01*
X72103697Y-85857846D01*
X72120517Y-85687065D01*
X72125259Y-85663224D01*
X72175075Y-85499001D01*
X72184378Y-85476543D01*
X72265272Y-85325201D01*
X72278777Y-85304989D01*
X72387645Y-85172333D01*
X72404833Y-85155145D01*
X72537489Y-85046277D01*
X72557701Y-85032772D01*
X72709043Y-84951878D01*
X72731501Y-84942575D01*
X72895724Y-84892759D01*
X72919565Y-84888017D01*
X73090346Y-84871197D01*
X73114654Y-84871197D01*
X73285434Y-84888017D01*
G37*
G36*
X98025434Y-72388017D02*
G01*
X98049275Y-72392759D01*
X98213498Y-72442575D01*
X98235956Y-72451878D01*
X98387298Y-72532772D01*
X98407510Y-72546277D01*
X98540166Y-72655145D01*
X98557354Y-72672333D01*
X98666222Y-72804989D01*
X98679727Y-72825201D01*
X98760621Y-72976543D01*
X98769924Y-72999001D01*
X98819740Y-73163224D01*
X98824482Y-73187065D01*
X98841302Y-73357846D01*
X98841302Y-73382154D01*
X98824482Y-73552934D01*
X98819740Y-73576775D01*
X98769924Y-73740998D01*
X98760621Y-73763456D01*
X98679727Y-73914798D01*
X98666222Y-73935010D01*
X98557354Y-74067666D01*
X98540166Y-74084854D01*
X98407510Y-74193722D01*
X98387298Y-74207227D01*
X98235956Y-74288121D01*
X98213498Y-74297424D01*
X98049275Y-74347240D01*
X98025434Y-74351982D01*
X97854654Y-74368802D01*
X97830346Y-74368802D01*
X97659565Y-74351982D01*
X97635724Y-74347240D01*
X97471501Y-74297424D01*
X97449043Y-74288121D01*
X97297701Y-74207227D01*
X97277489Y-74193722D01*
X97144833Y-74084854D01*
X97127645Y-74067666D01*
X97018777Y-73935010D01*
X97005272Y-73914798D01*
X96924378Y-73763456D01*
X96915075Y-73740998D01*
X96865259Y-73576775D01*
X96860517Y-73552934D01*
X96843697Y-73382154D01*
X96843697Y-73357846D01*
X96860517Y-73187065D01*
X96865259Y-73163224D01*
X96915075Y-72999001D01*
X96924378Y-72976543D01*
X97005272Y-72825201D01*
X97018777Y-72804989D01*
X97127645Y-72672333D01*
X97144833Y-72655145D01*
X97277489Y-72546277D01*
X97297701Y-72532772D01*
X97449043Y-72451878D01*
X97471501Y-72442575D01*
X97635724Y-72392759D01*
X97659565Y-72388017D01*
X97830346Y-72371197D01*
X97854654Y-72371197D01*
X98025434Y-72388017D01*
G37*
G36*
X115905434Y-72388017D02*
G01*
X115929275Y-72392759D01*
X116093498Y-72442575D01*
X116115956Y-72451878D01*
X116267298Y-72532772D01*
X116287510Y-72546277D01*
X116420166Y-72655145D01*
X116437354Y-72672333D01*
X116546222Y-72804989D01*
X116559727Y-72825201D01*
X116640621Y-72976543D01*
X116649924Y-72999001D01*
X116699740Y-73163224D01*
X116704482Y-73187065D01*
X116721302Y-73357846D01*
X116721302Y-73382154D01*
X116704482Y-73552934D01*
X116699740Y-73576775D01*
X116649924Y-73740998D01*
X116640621Y-73763456D01*
X116559727Y-73914798D01*
X116546222Y-73935010D01*
X116437354Y-74067666D01*
X116420166Y-74084854D01*
X116287510Y-74193722D01*
X116267298Y-74207227D01*
X116115956Y-74288121D01*
X116093498Y-74297424D01*
X115929275Y-74347240D01*
X115905434Y-74351982D01*
X115734654Y-74368802D01*
X115710346Y-74368802D01*
X115539565Y-74351982D01*
X115515724Y-74347240D01*
X115351501Y-74297424D01*
X115329043Y-74288121D01*
X115177701Y-74207227D01*
X115157489Y-74193722D01*
X115024833Y-74084854D01*
X115007645Y-74067666D01*
X114898777Y-73935010D01*
X114885272Y-73914798D01*
X114804378Y-73763456D01*
X114795075Y-73740998D01*
X114745259Y-73576775D01*
X114740517Y-73552934D01*
X114723697Y-73382154D01*
X114723697Y-73357846D01*
X114740517Y-73187065D01*
X114745259Y-73163224D01*
X114795075Y-72999001D01*
X114804378Y-72976543D01*
X114885272Y-72825201D01*
X114898777Y-72804989D01*
X115007645Y-72672333D01*
X115024833Y-72655145D01*
X115157489Y-72546277D01*
X115177701Y-72532772D01*
X115329043Y-72451878D01*
X115351501Y-72442575D01*
X115515724Y-72392759D01*
X115539565Y-72388017D01*
X115710346Y-72371197D01*
X115734654Y-72371197D01*
X115905434Y-72388017D01*
G37*
G36*
X133925434Y-72388017D02*
G01*
X133949275Y-72392759D01*
X134113498Y-72442575D01*
X134135956Y-72451878D01*
X134287298Y-72532772D01*
X134307510Y-72546277D01*
X134440166Y-72655145D01*
X134457354Y-72672333D01*
X134566222Y-72804989D01*
X134579727Y-72825201D01*
X134660621Y-72976543D01*
X134669924Y-72999001D01*
X134719740Y-73163224D01*
X134724482Y-73187065D01*
X134741302Y-73357846D01*
X134741302Y-73382154D01*
X134724482Y-73552934D01*
X134719740Y-73576775D01*
X134669924Y-73740998D01*
X134660621Y-73763456D01*
X134579727Y-73914798D01*
X134566222Y-73935010D01*
X134457354Y-74067666D01*
X134440166Y-74084854D01*
X134307510Y-74193722D01*
X134287298Y-74207227D01*
X134135956Y-74288121D01*
X134113498Y-74297424D01*
X133949275Y-74347240D01*
X133925434Y-74351982D01*
X133754654Y-74368802D01*
X133730346Y-74368802D01*
X133559565Y-74351982D01*
X133535724Y-74347240D01*
X133371501Y-74297424D01*
X133349043Y-74288121D01*
X133197701Y-74207227D01*
X133177489Y-74193722D01*
X133044833Y-74084854D01*
X133027645Y-74067666D01*
X132918777Y-73935010D01*
X132905272Y-73914798D01*
X132824378Y-73763456D01*
X132815075Y-73740998D01*
X132765259Y-73576775D01*
X132760517Y-73552934D01*
X132743697Y-73382154D01*
X132743697Y-73357846D01*
X132760517Y-73187065D01*
X132765259Y-73163224D01*
X132815075Y-72999001D01*
X132824378Y-72976543D01*
X132905272Y-72825201D01*
X132918777Y-72804989D01*
X133027645Y-72672333D01*
X133044833Y-72655145D01*
X133177489Y-72546277D01*
X133197701Y-72532772D01*
X133349043Y-72451878D01*
X133371501Y-72442575D01*
X133535724Y-72392759D01*
X133559565Y-72388017D01*
X133730346Y-72371197D01*
X133754654Y-72371197D01*
X133925434Y-72388017D01*
G37*
G36*
X151945434Y-72388017D02*
G01*
X151969275Y-72392759D01*
X152133498Y-72442575D01*
X152155956Y-72451878D01*
X152307298Y-72532772D01*
X152327510Y-72546277D01*
X152460166Y-72655145D01*
X152477354Y-72672333D01*
X152586222Y-72804989D01*
X152599727Y-72825201D01*
X152680621Y-72976543D01*
X152689924Y-72999001D01*
X152739740Y-73163224D01*
X152744482Y-73187065D01*
X152761302Y-73357846D01*
X152761302Y-73382154D01*
X152744482Y-73552934D01*
X152739740Y-73576775D01*
X152689924Y-73740998D01*
X152680621Y-73763456D01*
X152599727Y-73914798D01*
X152586222Y-73935010D01*
X152477354Y-74067666D01*
X152460166Y-74084854D01*
X152327510Y-74193722D01*
X152307298Y-74207227D01*
X152155956Y-74288121D01*
X152133498Y-74297424D01*
X151969275Y-74347240D01*
X151945434Y-74351982D01*
X151774654Y-74368802D01*
X151750346Y-74368802D01*
X151579565Y-74351982D01*
X151555724Y-74347240D01*
X151391501Y-74297424D01*
X151369043Y-74288121D01*
X151217701Y-74207227D01*
X151197489Y-74193722D01*
X151064833Y-74084854D01*
X151047645Y-74067666D01*
X150938777Y-73935010D01*
X150925272Y-73914798D01*
X150844378Y-73763456D01*
X150835075Y-73740998D01*
X150785259Y-73576775D01*
X150780517Y-73552934D01*
X150763697Y-73382154D01*
X150763697Y-73357846D01*
X150780517Y-73187065D01*
X150785259Y-73163224D01*
X150835075Y-72999001D01*
X150844378Y-72976543D01*
X150925272Y-72825201D01*
X150938777Y-72804989D01*
X151047645Y-72672333D01*
X151064833Y-72655145D01*
X151197489Y-72546277D01*
X151217701Y-72532772D01*
X151369043Y-72451878D01*
X151391501Y-72442575D01*
X151555724Y-72392759D01*
X151579565Y-72388017D01*
X151750346Y-72371197D01*
X151774654Y-72371197D01*
X151945434Y-72388017D01*
G37*
G36*
X223805434Y-72378017D02*
G01*
X223829275Y-72382759D01*
X223993498Y-72432575D01*
X224015956Y-72441878D01*
X224167298Y-72522772D01*
X224187510Y-72536277D01*
X224320166Y-72645145D01*
X224337354Y-72662333D01*
X224446222Y-72794989D01*
X224459727Y-72815201D01*
X224540621Y-72966543D01*
X224549924Y-72989001D01*
X224599740Y-73153224D01*
X224604482Y-73177065D01*
X224621302Y-73347846D01*
X224621302Y-73372154D01*
X224604482Y-73542934D01*
X224599740Y-73566775D01*
X224549924Y-73730998D01*
X224540621Y-73753456D01*
X224459727Y-73904798D01*
X224446222Y-73925010D01*
X224337354Y-74057666D01*
X224320166Y-74074854D01*
X224187510Y-74183722D01*
X224167298Y-74197227D01*
X224015956Y-74278121D01*
X223993498Y-74287424D01*
X223829275Y-74337240D01*
X223805434Y-74341982D01*
X223634654Y-74358802D01*
X223610346Y-74358802D01*
X223439565Y-74341982D01*
X223415724Y-74337240D01*
X223251501Y-74287424D01*
X223229043Y-74278121D01*
X223077701Y-74197227D01*
X223057489Y-74183722D01*
X222924833Y-74074854D01*
X222907645Y-74057666D01*
X222798777Y-73925010D01*
X222785272Y-73904798D01*
X222704378Y-73753456D01*
X222695075Y-73730998D01*
X222645259Y-73566775D01*
X222640517Y-73542934D01*
X222623697Y-73372154D01*
X222623697Y-73347846D01*
X222640517Y-73177065D01*
X222645259Y-73153224D01*
X222695075Y-72989001D01*
X222704378Y-72966543D01*
X222785272Y-72815201D01*
X222798777Y-72794989D01*
X222907645Y-72662333D01*
X222924833Y-72645145D01*
X223057489Y-72536277D01*
X223077701Y-72522772D01*
X223229043Y-72441878D01*
X223251501Y-72432575D01*
X223415724Y-72382759D01*
X223439565Y-72378017D01*
X223610346Y-72361197D01*
X223634654Y-72361197D01*
X223805434Y-72378017D01*
G37*
G36*
X145845434Y-95448017D02*
G01*
X145869275Y-95452759D01*
X146033498Y-95502575D01*
X146055956Y-95511878D01*
X146207298Y-95592772D01*
X146227510Y-95606277D01*
X146360166Y-95715145D01*
X146377354Y-95732333D01*
X146486222Y-95864989D01*
X146499727Y-95885201D01*
X146580621Y-96036543D01*
X146589924Y-96059001D01*
X146639740Y-96223224D01*
X146644482Y-96247065D01*
X146661302Y-96417846D01*
X146661302Y-96442154D01*
X146644482Y-96612934D01*
X146639740Y-96636775D01*
X146589924Y-96800998D01*
X146580621Y-96823456D01*
X146499727Y-96974798D01*
X146486222Y-96995010D01*
X146377354Y-97127666D01*
X146360166Y-97144854D01*
X146227510Y-97253722D01*
X146207298Y-97267227D01*
X146055956Y-97348121D01*
X146033498Y-97357424D01*
X145869275Y-97407240D01*
X145845434Y-97411982D01*
X145674654Y-97428802D01*
X145650346Y-97428802D01*
X145479565Y-97411982D01*
X145455724Y-97407240D01*
X145291501Y-97357424D01*
X145269043Y-97348121D01*
X145117701Y-97267227D01*
X145097489Y-97253722D01*
X144964833Y-97144854D01*
X144947645Y-97127666D01*
X144838777Y-96995010D01*
X144825272Y-96974798D01*
X144744378Y-96823456D01*
X144735075Y-96800998D01*
X144685259Y-96636775D01*
X144680517Y-96612934D01*
X144663697Y-96442154D01*
X144663697Y-96417846D01*
X144680517Y-96247065D01*
X144685259Y-96223224D01*
X144735075Y-96059001D01*
X144744378Y-96036543D01*
X144825272Y-95885201D01*
X144838777Y-95864989D01*
X144947645Y-95732333D01*
X144964833Y-95715145D01*
X145097489Y-95606277D01*
X145117701Y-95592772D01*
X145269043Y-95511878D01*
X145291501Y-95502575D01*
X145455724Y-95452759D01*
X145479565Y-95448017D01*
X145650346Y-95431197D01*
X145674654Y-95431197D01*
X145845434Y-95448017D01*
G37*
G36*
X187875434Y-72388017D02*
G01*
X187899275Y-72392759D01*
X188063498Y-72442575D01*
X188085956Y-72451878D01*
X188237298Y-72532772D01*
X188257510Y-72546277D01*
X188390166Y-72655145D01*
X188407354Y-72672333D01*
X188516222Y-72804989D01*
X188529727Y-72825201D01*
X188610621Y-72976543D01*
X188619924Y-72999001D01*
X188669740Y-73163224D01*
X188674482Y-73187065D01*
X188691302Y-73357846D01*
X188691302Y-73382154D01*
X188674482Y-73552934D01*
X188669740Y-73576775D01*
X188619924Y-73740998D01*
X188610621Y-73763456D01*
X188529727Y-73914798D01*
X188516222Y-73935010D01*
X188407354Y-74067666D01*
X188390166Y-74084854D01*
X188257510Y-74193722D01*
X188237298Y-74207227D01*
X188085956Y-74288121D01*
X188063498Y-74297424D01*
X187899275Y-74347240D01*
X187875434Y-74351982D01*
X187704654Y-74368802D01*
X187680346Y-74368802D01*
X187509565Y-74351982D01*
X187485724Y-74347240D01*
X187321501Y-74297424D01*
X187299043Y-74288121D01*
X187147701Y-74207227D01*
X187127489Y-74193722D01*
X186994833Y-74084854D01*
X186977645Y-74067666D01*
X186868777Y-73935010D01*
X186855272Y-73914798D01*
X186774378Y-73763456D01*
X186765075Y-73740998D01*
X186715259Y-73576775D01*
X186710517Y-73552934D01*
X186693697Y-73382154D01*
X186693697Y-73357846D01*
X186710517Y-73187065D01*
X186715259Y-73163224D01*
X186765075Y-72999001D01*
X186774378Y-72976543D01*
X186855272Y-72825201D01*
X186868777Y-72804989D01*
X186977645Y-72672333D01*
X186994833Y-72655145D01*
X187127489Y-72546277D01*
X187147701Y-72532772D01*
X187299043Y-72451878D01*
X187321501Y-72442575D01*
X187485724Y-72392759D01*
X187509565Y-72388017D01*
X187680346Y-72371197D01*
X187704654Y-72371197D01*
X187875434Y-72388017D01*
G37*
G36*
X145945434Y-113768017D02*
G01*
X145969275Y-113772759D01*
X146133498Y-113822575D01*
X146155956Y-113831878D01*
X146307298Y-113912772D01*
X146327510Y-113926277D01*
X146460166Y-114035145D01*
X146477354Y-114052333D01*
X146586222Y-114184989D01*
X146599727Y-114205201D01*
X146680621Y-114356543D01*
X146689924Y-114379001D01*
X146739740Y-114543224D01*
X146744482Y-114567065D01*
X146761302Y-114737846D01*
X146761302Y-114762154D01*
X146744482Y-114932934D01*
X146739740Y-114956775D01*
X146689924Y-115120998D01*
X146680621Y-115143456D01*
X146599727Y-115294798D01*
X146586222Y-115315010D01*
X146477354Y-115447666D01*
X146460166Y-115464854D01*
X146327510Y-115573722D01*
X146307298Y-115587227D01*
X146155956Y-115668121D01*
X146133498Y-115677424D01*
X145969275Y-115727240D01*
X145945434Y-115731982D01*
X145774654Y-115748802D01*
X145750346Y-115748802D01*
X145579565Y-115731982D01*
X145555724Y-115727240D01*
X145391501Y-115677424D01*
X145369043Y-115668121D01*
X145217701Y-115587227D01*
X145197489Y-115573722D01*
X145064833Y-115464854D01*
X145047645Y-115447666D01*
X144938777Y-115315010D01*
X144925272Y-115294798D01*
X144844378Y-115143456D01*
X144835075Y-115120998D01*
X144785259Y-114956775D01*
X144780517Y-114932934D01*
X144763697Y-114762154D01*
X144763697Y-114737846D01*
X144780517Y-114567065D01*
X144785259Y-114543224D01*
X144835075Y-114379001D01*
X144844378Y-114356543D01*
X144925272Y-114205201D01*
X144938777Y-114184989D01*
X145047645Y-114052333D01*
X145064833Y-114035145D01*
X145197489Y-113926277D01*
X145217701Y-113912772D01*
X145369043Y-113831878D01*
X145391501Y-113822575D01*
X145555724Y-113772759D01*
X145579565Y-113768017D01*
X145750346Y-113751197D01*
X145774654Y-113751197D01*
X145945434Y-113768017D01*
G37*
G36*
X79917934Y-72388017D02*
G01*
X79941775Y-72392759D01*
X80105998Y-72442575D01*
X80128456Y-72451878D01*
X80279798Y-72532772D01*
X80300010Y-72546277D01*
X80432666Y-72655145D01*
X80449854Y-72672333D01*
X80558722Y-72804989D01*
X80572227Y-72825201D01*
X80653121Y-72976543D01*
X80662424Y-72999001D01*
X80712240Y-73163224D01*
X80716982Y-73187065D01*
X80733802Y-73357846D01*
X80733802Y-73382154D01*
X80716982Y-73552934D01*
X80712240Y-73576775D01*
X80662424Y-73740998D01*
X80653121Y-73763456D01*
X80572227Y-73914798D01*
X80558722Y-73935010D01*
X80449854Y-74067666D01*
X80432666Y-74084854D01*
X80300010Y-74193722D01*
X80279798Y-74207227D01*
X80128456Y-74288121D01*
X80105998Y-74297424D01*
X79941775Y-74347240D01*
X79917934Y-74351982D01*
X79747154Y-74368802D01*
X79722846Y-74368802D01*
X79552065Y-74351982D01*
X79528224Y-74347240D01*
X79364001Y-74297424D01*
X79341543Y-74288121D01*
X79190201Y-74207227D01*
X79169989Y-74193722D01*
X79037333Y-74084854D01*
X79020145Y-74067666D01*
X78911277Y-73935010D01*
X78897772Y-73914798D01*
X78816878Y-73763456D01*
X78807575Y-73740998D01*
X78757759Y-73576775D01*
X78753017Y-73552934D01*
X78736197Y-73382154D01*
X78736197Y-73357846D01*
X78753017Y-73187065D01*
X78757759Y-73163224D01*
X78807575Y-72999001D01*
X78816878Y-72976543D01*
X78897772Y-72825201D01*
X78911277Y-72804989D01*
X79020145Y-72672333D01*
X79037333Y-72655145D01*
X79169989Y-72546277D01*
X79190201Y-72532772D01*
X79341543Y-72451878D01*
X79364001Y-72442575D01*
X79528224Y-72392759D01*
X79552065Y-72388017D01*
X79722846Y-72371197D01*
X79747154Y-72371197D01*
X79917934Y-72388017D01*
G37*
G36*
X205835434Y-72378017D02*
G01*
X205859275Y-72382759D01*
X206023498Y-72432575D01*
X206045956Y-72441878D01*
X206197298Y-72522772D01*
X206217510Y-72536277D01*
X206350166Y-72645145D01*
X206367354Y-72662333D01*
X206476222Y-72794989D01*
X206489727Y-72815201D01*
X206570621Y-72966543D01*
X206579924Y-72989001D01*
X206629740Y-73153224D01*
X206634482Y-73177065D01*
X206651302Y-73347846D01*
X206651302Y-73372154D01*
X206634482Y-73542934D01*
X206629740Y-73566775D01*
X206579924Y-73730998D01*
X206570621Y-73753456D01*
X206489727Y-73904798D01*
X206476222Y-73925010D01*
X206367354Y-74057666D01*
X206350166Y-74074854D01*
X206217510Y-74183722D01*
X206197298Y-74197227D01*
X206045956Y-74278121D01*
X206023498Y-74287424D01*
X205859275Y-74337240D01*
X205835434Y-74341982D01*
X205664654Y-74358802D01*
X205640346Y-74358802D01*
X205469565Y-74341982D01*
X205445724Y-74337240D01*
X205281501Y-74287424D01*
X205259043Y-74278121D01*
X205107701Y-74197227D01*
X205087489Y-74183722D01*
X204954833Y-74074854D01*
X204937645Y-74057666D01*
X204828777Y-73925010D01*
X204815272Y-73904798D01*
X204734378Y-73753456D01*
X204725075Y-73730998D01*
X204675259Y-73566775D01*
X204670517Y-73542934D01*
X204653697Y-73372154D01*
X204653697Y-73347846D01*
X204670517Y-73177065D01*
X204675259Y-73153224D01*
X204725075Y-72989001D01*
X204734378Y-72966543D01*
X204815272Y-72815201D01*
X204828777Y-72794989D01*
X204937645Y-72662333D01*
X204954833Y-72645145D01*
X205087489Y-72536277D01*
X205107701Y-72522772D01*
X205259043Y-72441878D01*
X205281501Y-72432575D01*
X205445724Y-72382759D01*
X205469565Y-72378017D01*
X205640346Y-72361197D01*
X205664654Y-72361197D01*
X205835434Y-72378017D01*
G37*
G36*
X241805434Y-72388017D02*
G01*
X241829275Y-72392759D01*
X241993498Y-72442575D01*
X242015956Y-72451878D01*
X242167298Y-72532772D01*
X242187510Y-72546277D01*
X242320166Y-72655145D01*
X242337354Y-72672333D01*
X242446222Y-72804989D01*
X242459727Y-72825201D01*
X242540621Y-72976543D01*
X242549924Y-72999001D01*
X242599740Y-73163224D01*
X242604482Y-73187065D01*
X242621302Y-73357846D01*
X242621302Y-73382154D01*
X242604482Y-73552934D01*
X242599740Y-73576775D01*
X242549924Y-73740998D01*
X242540621Y-73763456D01*
X242459727Y-73914798D01*
X242446222Y-73935010D01*
X242337354Y-74067666D01*
X242320166Y-74084854D01*
X242187510Y-74193722D01*
X242167298Y-74207227D01*
X242015956Y-74288121D01*
X241993498Y-74297424D01*
X241829275Y-74347240D01*
X241805434Y-74351982D01*
X241634654Y-74368802D01*
X241610346Y-74368802D01*
X241439565Y-74351982D01*
X241415724Y-74347240D01*
X241251501Y-74297424D01*
X241229043Y-74288121D01*
X241077701Y-74207227D01*
X241057489Y-74193722D01*
X240924833Y-74084854D01*
X240907645Y-74067666D01*
X240798777Y-73935010D01*
X240785272Y-73914798D01*
X240704378Y-73763456D01*
X240695075Y-73740998D01*
X240645259Y-73576775D01*
X240640517Y-73552934D01*
X240623697Y-73382154D01*
X240623697Y-73357846D01*
X240640517Y-73187065D01*
X240645259Y-73163224D01*
X240695075Y-72999001D01*
X240704378Y-72976543D01*
X240785272Y-72825201D01*
X240798777Y-72804989D01*
X240907645Y-72672333D01*
X240924833Y-72655145D01*
X241057489Y-72546277D01*
X241077701Y-72532772D01*
X241229043Y-72451878D01*
X241251501Y-72442575D01*
X241415724Y-72392759D01*
X241439565Y-72388017D01*
X241610346Y-72371197D01*
X241634654Y-72371197D01*
X241805434Y-72388017D01*
G37*
G36*
X73285434Y-95078017D02*
G01*
X73309275Y-95082759D01*
X73473498Y-95132575D01*
X73495956Y-95141878D01*
X73647298Y-95222772D01*
X73667510Y-95236277D01*
X73800166Y-95345145D01*
X73817354Y-95362333D01*
X73926222Y-95494989D01*
X73939727Y-95515201D01*
X74020621Y-95666543D01*
X74029924Y-95689001D01*
X74079740Y-95853224D01*
X74084482Y-95877065D01*
X74101302Y-96047846D01*
X74101302Y-96072154D01*
X74084482Y-96242934D01*
X74079740Y-96266775D01*
X74029924Y-96430998D01*
X74020621Y-96453456D01*
X73939727Y-96604798D01*
X73926222Y-96625010D01*
X73817354Y-96757666D01*
X73800166Y-96774854D01*
X73667510Y-96883722D01*
X73647298Y-96897227D01*
X73495956Y-96978121D01*
X73473498Y-96987424D01*
X73309275Y-97037240D01*
X73285434Y-97041982D01*
X73114654Y-97058802D01*
X73090346Y-97058802D01*
X72919565Y-97041982D01*
X72895724Y-97037240D01*
X72731501Y-96987424D01*
X72709043Y-96978121D01*
X72557701Y-96897227D01*
X72537489Y-96883722D01*
X72404833Y-96774854D01*
X72387645Y-96757666D01*
X72278777Y-96625010D01*
X72265272Y-96604798D01*
X72184378Y-96453456D01*
X72175075Y-96430998D01*
X72125259Y-96266775D01*
X72120517Y-96242934D01*
X72103697Y-96072154D01*
X72103697Y-96047846D01*
X72120517Y-95877065D01*
X72125259Y-95853224D01*
X72175075Y-95689001D01*
X72184378Y-95666543D01*
X72265272Y-95515201D01*
X72278777Y-95494989D01*
X72387645Y-95362333D01*
X72404833Y-95345145D01*
X72537489Y-95236277D01*
X72557701Y-95222772D01*
X72709043Y-95141878D01*
X72731501Y-95132575D01*
X72895724Y-95082759D01*
X72919565Y-95078017D01*
X73090346Y-95061197D01*
X73114654Y-95061197D01*
X73285434Y-95078017D01*
G37*
G36*
X169895434Y-72388017D02*
G01*
X169919275Y-72392759D01*
X170083498Y-72442575D01*
X170105956Y-72451878D01*
X170257298Y-72532772D01*
X170277510Y-72546277D01*
X170410166Y-72655145D01*
X170427354Y-72672333D01*
X170536222Y-72804989D01*
X170549727Y-72825201D01*
X170630621Y-72976543D01*
X170639924Y-72999001D01*
X170689740Y-73163224D01*
X170694482Y-73187065D01*
X170711302Y-73357846D01*
X170711302Y-73382154D01*
X170694482Y-73552934D01*
X170689740Y-73576775D01*
X170639924Y-73740998D01*
X170630621Y-73763456D01*
X170549727Y-73914798D01*
X170536222Y-73935010D01*
X170427354Y-74067666D01*
X170410166Y-74084854D01*
X170277510Y-74193722D01*
X170257298Y-74207227D01*
X170105956Y-74288121D01*
X170083498Y-74297424D01*
X169919275Y-74347240D01*
X169895434Y-74351982D01*
X169724654Y-74368802D01*
X169700346Y-74368802D01*
X169529565Y-74351982D01*
X169505724Y-74347240D01*
X169341501Y-74297424D01*
X169319043Y-74288121D01*
X169167701Y-74207227D01*
X169147489Y-74193722D01*
X169014833Y-74084854D01*
X168997645Y-74067666D01*
X168888777Y-73935010D01*
X168875272Y-73914798D01*
X168794378Y-73763456D01*
X168785075Y-73740998D01*
X168735259Y-73576775D01*
X168730517Y-73552934D01*
X168713697Y-73382154D01*
X168713697Y-73357846D01*
X168730517Y-73187065D01*
X168735259Y-73163224D01*
X168785075Y-72999001D01*
X168794378Y-72976543D01*
X168875272Y-72825201D01*
X168888777Y-72804989D01*
X168997645Y-72672333D01*
X169014833Y-72655145D01*
X169147489Y-72546277D01*
X169167701Y-72532772D01*
X169319043Y-72451878D01*
X169341501Y-72442575D01*
X169505724Y-72392759D01*
X169529565Y-72388017D01*
X169700346Y-72371197D01*
X169724654Y-72371197D01*
X169895434Y-72388017D01*
G37*
M02*
