M48
; DRILL file {KiCad 8.0.7} date 2025-02-15T17:39:42+0600
; FORMAT={-:-/ absolute / metric / decimal}
; #@! TF.CreationDate,2025-02-15T17:39:42+06:00
; #@! TF.GenerationSoftware,Kicad,Pcbnew,8.0.7
; #@! TF.FileFunction,Plated,1,2,PTH
FMAT,2
METRIC
; #@! TA.AperFunction,Plated,PTH,ViaDrill
T1C1.000
; #@! TA.AperFunction,Plated,PTH,ComponentDrill
T2C1.000
; #@! TA.AperFunction,Plated,PTH,ComponentDrill
T3C1.100
; #@! TA.AperFunction,Plated,PTH,ComponentDrill
T4C1.300
%
G90
G05
T1
X73.102Y-85.87
X73.102Y-96.06
X79.735Y-73.37
X97.843Y-73.37
X115.722Y-73.37
X133.743Y-73.37
X145.662Y-96.43
X145.762Y-114.75
X151.762Y-73.37
X169.713Y-73.37
X187.692Y-73.37
X205.653Y-73.36
X223.623Y-73.36
X241.623Y-73.37
T2
X79.752Y-78.62
X79.752Y-81.16
X79.752Y-91.32
X79.752Y-98.94
X81.345Y-51.372
X81.345Y-56.372
X87.02Y-88.76
X87.02Y-98.92
X91.73Y-88.87
X91.73Y-93.95
X97.739Y-78.62
X97.739Y-81.16
X97.739Y-91.32
X97.739Y-98.94
X105.007Y-88.76
X105.007Y-98.92
X109.717Y-88.87
X109.717Y-93.95
X110.425Y-46.372
X110.425Y-61.372
X115.726Y-78.62
X115.726Y-81.16
X115.726Y-91.32
X115.726Y-98.94
X117.852Y-51.19
X122.932Y-51.19
X122.993Y-88.76
X122.993Y-98.92
X127.703Y-88.87
X127.703Y-93.95
X127.832Y-51.265
X127.832Y-61.425
X133.712Y-78.62
X133.712Y-81.16
X133.712Y-91.32
X133.712Y-98.94
X140.98Y-88.76
X140.98Y-98.92
X144.153Y-48.602
X144.153Y-63.842
X145.69Y-88.87
X145.69Y-93.95
X146.692Y-48.602
X146.692Y-63.842
X149.232Y-48.602
X149.232Y-63.842
X151.699Y-78.62
X151.699Y-81.16
X151.699Y-91.32
X151.699Y-98.94
X151.772Y-48.602
X151.772Y-63.842
X154.312Y-48.602
X154.312Y-63.842
X156.852Y-48.602
X156.852Y-63.842
X158.967Y-88.76
X158.967Y-98.92
X159.392Y-48.602
X159.392Y-63.842
X161.933Y-48.602
X161.933Y-63.842
X163.677Y-88.87
X163.677Y-93.95
X164.472Y-48.602
X164.472Y-63.842
X167.012Y-48.602
X167.012Y-63.842
X169.552Y-48.602
X169.552Y-63.842
X169.686Y-78.62
X169.686Y-81.16
X169.686Y-91.32
X169.686Y-98.94
X172.093Y-48.602
X172.093Y-63.842
X174.632Y-48.602
X174.632Y-63.842
X176.953Y-88.76
X176.953Y-98.92
X177.172Y-48.602
X177.172Y-63.842
X179.713Y-48.602
X179.713Y-63.842
X181.663Y-88.87
X181.663Y-93.95
X187.672Y-78.62
X187.672Y-81.16
X187.672Y-91.32
X187.672Y-98.94
X194.94Y-88.76
X194.94Y-98.92
X199.65Y-88.87
X199.65Y-93.95
X205.659Y-78.62
X205.659Y-81.16
X205.659Y-91.32
X205.659Y-98.94
X212.927Y-88.76
X212.927Y-98.92
X217.637Y-88.87
X217.637Y-93.95
X223.646Y-78.62
X223.646Y-81.16
X223.646Y-91.32
X223.646Y-98.94
X230.913Y-88.76
X230.913Y-98.92
X235.623Y-88.87
X235.623Y-93.95
X241.632Y-78.62
X241.632Y-81.16
X241.632Y-91.32
X241.632Y-98.94
X248.9Y-88.76
X248.9Y-98.92
X253.61Y-88.87
X253.61Y-93.95
T3
X134.273Y-51.31
X134.273Y-61.47
T4
X68.032Y-114.71
X73.112Y-114.71
X80.072Y-114.71
X85.152Y-114.71
X90.233Y-114.71
X95.312Y-114.71
X100.392Y-114.71
X105.472Y-114.71
X110.552Y-114.71
X115.632Y-114.71
X120.712Y-114.71
X125.792Y-114.71
X133.433Y-114.71
X138.512Y-114.71
M30
