%TF.GenerationSoftware,KiCad,Pcbnew,8.0.7*%
%TF.CreationDate,2025-02-15T17:39:48+06:00*%
%TF.ProjectId,arduino_plc,61726475-696e-46f5-9f70-6c632e6b6963,rev?*%
%TF.SameCoordinates,Original*%
%TF.FileFunction,Other,User*%
%FSLAX46Y46*%
G04 Gerber Fmt 4.6, Leading zero omitted, Abs format (unit mm)*
G04 Created by KiCad (PCBNEW 8.0.7) date 2025-02-15 17:39:48*
%MOMM*%
%LPD*%
G01*
G04 APERTURE LIST*
%ADD10C,0.050000*%
G04 APERTURE END LIST*
D10*
X64190000Y-40980000D02*
X256710000Y-40980000D01*
X256710000Y-121220000D01*
X64190000Y-121220000D01*
X64190000Y-40980000D01*
%TO.C,A1*%
X140092500Y-65372500D02*
X140092500Y-47092500D01*
X140092500Y-65372500D02*
X186312500Y-65372500D01*
X186312500Y-47092500D02*
X140092500Y-47092500D01*
X186312500Y-47092500D02*
X186312500Y-65372500D01*
%TO.C,K5*%
X149849164Y-76030000D02*
X156349164Y-76030000D01*
X149849164Y-101530000D02*
X149849164Y-76030000D01*
X156349164Y-76030000D02*
X156349164Y-101530000D01*
X156349164Y-101530000D02*
X149849164Y-101530000D01*
%TO.C,K6*%
X167835830Y-76030000D02*
X174335830Y-76030000D01*
X167835830Y-101530000D02*
X167835830Y-76030000D01*
X174335830Y-76030000D02*
X174335830Y-101530000D01*
X174335830Y-101530000D02*
X167835830Y-101530000D01*
%TO.C,PS1*%
X77235000Y-42372500D02*
X77235000Y-65372500D01*
X77235000Y-42372500D02*
X114535000Y-42372500D01*
X77235000Y-65372500D02*
X114535000Y-65372500D01*
X114535000Y-42372500D02*
X114535000Y-65372500D01*
%TO.C,K8*%
X203809162Y-76030000D02*
X210309162Y-76030000D01*
X203809162Y-101530000D02*
X203809162Y-76030000D01*
X210309162Y-76030000D02*
X210309162Y-101530000D01*
X210309162Y-101530000D02*
X203809162Y-101530000D01*
%TO.C,K10*%
X239782500Y-76030000D02*
X246282500Y-76030000D01*
X239782500Y-101530000D02*
X239782500Y-76030000D01*
X246282500Y-76030000D02*
X246282500Y-101530000D01*
X246282500Y-101530000D02*
X239782500Y-101530000D01*
%TO.C,K9*%
X221795828Y-76030000D02*
X228295828Y-76030000D01*
X221795828Y-101530000D02*
X221795828Y-76030000D01*
X228295828Y-76030000D02*
X228295828Y-101530000D01*
X228295828Y-101530000D02*
X221795828Y-101530000D01*
%TO.C,REF\u002A\u002A*%
X130392500Y-109000000D02*
X130392500Y-119810000D01*
X130392500Y-119810000D02*
X141562500Y-119810000D01*
X141562500Y-109000000D02*
X130392500Y-109000000D01*
X141562500Y-119810000D02*
X141562500Y-109000000D01*
%TO.C,K2*%
X95889166Y-76030000D02*
X102389166Y-76030000D01*
X95889166Y-101530000D02*
X95889166Y-76030000D01*
X102389166Y-76030000D02*
X102389166Y-101530000D01*
X102389166Y-101530000D02*
X95889166Y-101530000D01*
%TO.C,K3*%
X113875832Y-76030000D02*
X120375832Y-76030000D01*
X113875832Y-101530000D02*
X113875832Y-76030000D01*
X120375832Y-76030000D02*
X120375832Y-101530000D01*
X120375832Y-101530000D02*
X113875832Y-101530000D01*
%TO.C,REF\u002A\u002A*%
X77032500Y-109000000D02*
X77032500Y-119810000D01*
X77032500Y-119810000D02*
X128832500Y-119810000D01*
X128832500Y-109000000D02*
X77032500Y-109000000D01*
X128832500Y-119810000D02*
X128832500Y-109000000D01*
%TO.C,K4*%
X131862498Y-76030000D02*
X138362498Y-76030000D01*
X131862498Y-101530000D02*
X131862498Y-76030000D01*
X138362498Y-76030000D02*
X138362498Y-101530000D01*
X138362498Y-101530000D02*
X131862498Y-101530000D01*
%TO.C,K1*%
X77902500Y-76030000D02*
X84402500Y-76030000D01*
X77902500Y-101530000D02*
X77902500Y-76030000D01*
X84402500Y-76030000D02*
X84402500Y-101530000D01*
X84402500Y-101530000D02*
X77902500Y-101530000D01*
%TO.C,K7*%
X185822496Y-76030000D02*
X192322496Y-76030000D01*
X185822496Y-101530000D02*
X185822496Y-76030000D01*
X192322496Y-76030000D02*
X192322496Y-101530000D01*
X192322496Y-101530000D02*
X185822496Y-101530000D01*
%TO.C,REF\u002A\u002A*%
X64992500Y-109000000D02*
X64992500Y-119810000D01*
X64992500Y-119810000D02*
X76162500Y-119810000D01*
X76162500Y-109000000D02*
X64992500Y-109000000D01*
X76162500Y-119810000D02*
X76162500Y-109000000D01*
%TO.C,D1*%
X132672500Y-49960000D02*
X132672500Y-62820000D01*
X132672500Y-62820000D02*
X135872500Y-62820000D01*
X135872500Y-49960000D02*
X132672500Y-49960000D01*
X135872500Y-62820000D02*
X135872500Y-49960000D01*
%TD*%
M02*
